# xmcd CD database file generated by Grip 2.94
# 
# Track frame offsets:
#       150
#       16587
#       39410
#       57557
#       71115
#       90410
#       111712
#       126010
#       142057
#       164380
#       189875
# 
# Disc length: 2873 seconds
# 
# Revision: 3
# Processed by: cddbd v1.4b41PL1 Copyright (c) Steve Scherf et al.
# Submitted via: Grip 2.94
# 
DISCID=970b370b
DTITLE=Say Uncle - Say Uncle!
DYEAR=1900
DGENRE=
TTITLE0=I'd Lie To You For Your Love
TTITLE1=The Real Thing
TTITLE2=The "D" Song
TTITLE3=We Just Disagree
TTITLE4=That's Twice
TTITLE5=Yes Sir
TTITLE6=It's My Turn
TTITLE7=With Or Without You
TTITLE8=I Ain't Drunk, I'm Just Drinkin'
TTITLE9=God Must Listen To The Blues
TTITLE10=I Play The Blues For You
EXTD=
EXTT0=
EXTT1=
EXTT2=
EXTT3=
EXTT4=
EXTT5=
EXTT6=
EXTT7=
EXTT8=
EXTT9=
EXTT10=
PLAYORDER=
